<svg data-bbox="-0.01 0 1181.1 1118.271" xmlns="http://www.w3.org/2000/svg" viewBox="0 0 1182 1119" fill-rule="evenodd" clip-rule="evenodd" stroke-linecap="round" stroke-linejoin="round" stroke-miterlimit="1.5" data-type="ugc">
    <g>
        <path fill="none" d="M1181.09 0v1118.271H-.01V0h1181.1z"></path>
        <path d="M425.39 1305.65s1.386 96.63-3.036 119.13c-1.229 6.25-5.636 16.07-11.624 23.53-6.214 7.73-14.1 13.04-20.254 15.46-18.721 7.36-36.132 5.48-66.123 5.32-29.953-.17-66.494.22-83.428-13.27-6.607-5.27-13.543-12.65-17.207-25.3-3.207-11.07-3.356-19-3.416-27.54-.055-7.94-.127-16.6-.12-23.94.02-19.14-4.044-59.01 6.457-84.99 6.009-14.86 20.807-23.82 31.452-29.42 11.338-5.97 30.945-6.46 49.797-6.73 29.785-.42 60.711 2.31 77.168 4.69 4.573.66 14.047 3.09 19.323 7.27 5.077 4.02 9.544 6.85 10.644 19.79.36 4.24-75.711 52.09-80.087 58.82-14.553 22.36 14.208 21.08 0 0-3.169-4.71-92.441-51.47-92.441-51.47" fill="none" stroke="#264441" stroke-width="4.16" transform="matrix(4.58298 0 0 3.32688 -890.43 -3992.965)"></path>
    </g>
</svg>