<svg data-bbox="20 20 160 160" viewBox="0 0 200 200" height="200" width="200" xmlns="http://www.w3.org/2000/svg" data-type="color">
    <g>
        <path fill="#050505" d="M100.001 135.685 20.539 83.862l1.295-1.988 78.167 50.98 78.164-50.98 1.297 1.988-79.461 51.823z" data-color="1"></path>
        <path fill="#050505" d="m75.459 129.987 1.339 1.96-54.96 37.547-1.339-1.96 54.96-37.547z" data-color="1"></path>
        <path fill="#050505" d="m124.554 129.973 54.927 37.593-1.34 1.959-54.928-37.593 1.341-1.959z" data-color="1"></path>
        <path d="M168.534 180H31.466a11.541 11.541 0 0 1-8.108-3.359A11.543 11.543 0 0 1 20 168.534V78.805L30.808 71.6l1.316 1.974-9.752 6.501v88.459c0 2.393.971 4.736 2.663 6.429a9.155 9.155 0 0 0 6.43 2.664h137.068a9.037 9.037 0 0 0 6.432-2.664 9.158 9.158 0 0 0 2.662-6.429v-88.46l-9.752-6.501 1.316-1.974L180 78.805v89.729c0 3.019-1.223 5.973-3.357 8.107a11.404 11.404 0 0 1-8.109 3.359z" fill="#050505" data-color="1"></path>
        <path fill="#050505" d="M159.435 96.573h-2.372V22.372H42.928v57.067h-2.373V20h118.88v76.573z" data-color="1"></path>
        <path d="M98.288 84.048c-3.52 0-6.83-1.37-9.32-3.86a13.1 13.1 0 0 1-3.86-9.32v-2.167c0-3.858 1.502-7.484 4.229-10.209a14.34 14.34 0 0 1 10.209-4.229h11.921v16.606c0 3.518-1.372 6.828-3.86 9.32a13.088 13.088 0 0 1-9.319 3.859zm1.26-27.414c-3.224 0-6.253 1.256-8.532 3.534s-3.534 5.308-3.534 8.532v2.167c0 2.886 1.124 5.6 3.165 7.642a10.736 10.736 0 0 0 7.642 3.165c2.888 0 5.602-1.124 7.643-3.165a10.745 10.745 0 0 0 3.165-7.642V56.634h-9.549z" fill="#050505" data-color="1"></path>
        <path d="M99.995 101.185a31.918 31.918 0 0 1-17.792-5.398 31.918 31.918 0 0 1-11.795-14.373 31.906 31.906 0 0 1-1.822-18.504 31.915 31.915 0 0 1 8.765-16.398 31.923 31.923 0 0 1 16.398-8.765 31.897 31.897 0 0 1 18.505 1.822 31.917 31.917 0 0 1 14.372 11.795 31.923 31.923 0 0 1 5.398 17.792l.009.988c.049 3.94.151 12.139-4.618 16.968-2.484 2.516-5.945 3.792-10.285 3.792a7.995 7.995 0 0 1-5.686-2.355 7.986 7.986 0 0 1-2.354-5.684V72.584h2.372v10.281c0 1.514.588 2.937 1.659 4.007s2.495 1.66 4.008 1.66c3.682 0 6.575-1.038 8.598-3.086 4.071-4.123 3.98-11.376 3.932-15.272l-.009-1.017a29.54 29.54 0 0 0-5-16.474 29.547 29.547 0 0 0-13.306-10.922 29.595 29.595 0 0 0-17.133-1.688 29.565 29.565 0 0 0-15.184 8.116 29.556 29.556 0 0 0-8.116 15.184 29.553 29.553 0 0 0 1.688 17.132 29.553 29.553 0 0 0 10.922 13.309 29.563 29.563 0 0 0 16.474 4.997v2.374z" fill="#050505" data-color="1"></path>
    </g>
</svg>